<svg xmlns="http://www.w3.org/2000/svg" width="1200" height="630" viewBox="0 0 1200 630">
  <rect width="1200" height="630" fill="#050505"/>
  <path d="M0 492h1200v138H0z" fill="#0f1117"/>
  <rect x="80" y="72" width="84" height="84" rx="18" fill="#050608" stroke="#2dd4bf" stroke-width="2"/>
  <path d="M122 88 152 144h-16l-5-11h-20l-5 11H90l32-56z" fill="#f8fafc"/>
  <path d="M122 111 116 124h12l-6-13z" fill="#050608"/>
  <path d="m147 88 12-10 4 17 17 5-15 9 2 18-14-11-16 7 6-17-12-14 18 1z" fill="#34d399"/>
  <text x="188" y="112" font-family="Arial, sans-serif" font-size="36" font-weight="800" fill="#ffffff">Alpha Tools</text>
  <text x="188" y="150" font-family="Arial, sans-serif" font-size="22" font-weight="600" fill="#a1a1aa">Crypto calculators and airdrop research hub</text>
  <text x="80" y="290" font-family="Arial, sans-serif" font-size="26" font-weight="800" fill="#34d399">Perps · Cards · L1 · L2 · Launchpads · NFT · AI · Yield</text>
  <text x="80" y="386" font-family="Arial, sans-serif" font-size="72" font-weight="800" fill="#ffffff">Find the next</text>
  <text x="80" y="470" font-family="Arial, sans-serif" font-size="72" font-weight="800" fill="#ffffff">alpha calculator.</text>
  <rect x="80" y="536" width="170" height="42" rx="8" fill="#34d399"/>
  <text x="165" y="564" text-anchor="middle" font-family="Arial, sans-serif" font-size="18" font-weight="800" fill="#050505">Nado</text>
  <rect x="270" y="536" width="188" height="42" rx="8" fill="#fb923c"/>
  <text x="364" y="564" text-anchor="middle" font-family="Arial, sans-serif" font-size="18" font-weight="800" fill="#050505">Hibachi</text>
</svg>
