<svg xmlns="http://www.w3.org/2000/svg" viewBox="0 0 119 122" role="img" aria-label="Nado logo mark">
  <path fill="#f8fafc" fill-rule="evenodd" clip-rule="evenodd" d="M113.775.608 118.908 9.431v3.953L99.292 74.23l-.005.005-2.413 2.587-18.022 4.116 15.762 17.935 1.508 3.499v17.037l-2.111 2.129H83.898l-3.317-1.824-42.556-47.458v-.005l-1.057-3.345 5.384-17.426-23.191 4.805-3.619-.458L.905 47.309 0 44.417l4.979-8.972 3.318-1.979 62.172-13.234v.005l3.317.758L86.3 34.449l7.557-23.04 2.265-2.89L110.759 0l3.016.608ZM81.485 38.032c-6.339 7.302-14.636 8.364-24.145 10.343l-8.456 1.751-1.048 3.567c9.509 1.825 14.489 8.519 20.977 15.822l5.621 6.395 4.03-.918c-3.17-9.276.153-17.032 3.17-26.313l2.556-7.795-2.705-2.852Z"/>
</svg>
