<svg width="520" height="132" viewBox="0 0 520 132" fill="none" xmlns="http://www.w3.org/2000/svg">
  <rect width="520" height="132" rx="18" fill="#F7FBFF"/>
  <circle cx="66" cy="66" r="42" fill="#2081E2"/>
  <path d="M42.4 76.8h47.1c1.7 0 3 1.3 3 3 0 8.3-10 15.8-26.1 15.8-14 0-24.4-6.5-27.4-16.4-.5-1.6.7-3.4 2.4-3.4Z" fill="white"/>
  <path d="M59.8 28.1c1.6-3.6 7-3 7.9.8l9.2 38.5H41.3l18.5-39.3Z" fill="white"/>
  <path d="M72 34.5c.8-1.8 3.4-1.4 3.8.5l7.7 32.4h-8.9L72 34.5Z" fill="#BFE3FF"/>
  <text x="126" y="82" fill="#04111D" font-family="Inter, Arial, sans-serif" font-size="48" font-weight="800" letter-spacing="0">OpenSea</text>
</svg>
