<svg width="128" height="128" viewBox="0 0 128 128" fill="none" xmlns="http://www.w3.org/2000/svg">
  <rect width="128" height="128" rx="24" fill="#2081E2"/>
  <path d="M64 18C38.6 18 18 38.6 18 64s20.6 46 46 46 46-20.6 46-46S89.4 18 64 18Z" fill="#2081E2"/>
  <path d="M38 75.5h51.5c1.8 0 3.2 1.4 3.2 3.2 0 9.1-10.9 17.3-28.5 17.3-15.3 0-26.7-7.1-30-17.9-.5-1.7.8-3.6 2.6-3.6Z" fill="white"/>
  <path d="M57.6 28.7c1.8-3.9 7.6-3.2 8.6.9l10.1 42.1H37.4l20.2-43Z" fill="white"/>
  <path d="M70.2 35.5c.9-1.9 3.7-1.5 4.1.6l8.4 35.6H73L70.2 35.5Z" fill="#BFE3FF"/>
  <path d="M50.9 55.2c6.5 3.1 12.9 4.3 19.2 3.7l3.2 13.8H44.7l6.2-17.5Z" fill="#2081E2" fill-opacity=".18"/>
</svg>
