<svg width="360" height="72" viewBox="0 0 360 72" fill="none" xmlns="http://www.w3.org/2000/svg">
  <rect width="72" height="72" rx="12" fill="#ffffff"/>
  <path d="M17 14L44 36L17 58V14Z" fill="#1f6bff"/>
  <path d="M55 14L28 36L55 58V14Z" fill="#05070c"/>
  <path d="M96 49V23H109.6C115.76 23 119.84 26.72 119.84 32.24C119.84 37.76 115.76 41.52 109.6 41.52H102.08V49H96ZM102.08 36.56H108.84C111.84 36.56 113.68 34.92 113.68 32.24C113.68 29.6 111.84 27.96 108.84 27.96H102.08V36.56Z" fill="#ffffff"/>
  <path d="M133.7 49.48C126.06 49.48 120.74 43.92 120.74 36C120.74 28.08 126.06 22.52 133.7 22.52C141.34 22.52 146.66 28.08 146.66 36C146.66 43.92 141.34 49.48 133.7 49.48ZM133.7 44.08C137.74 44.08 140.42 40.84 140.42 36C140.42 31.16 137.74 27.92 133.7 27.92C129.66 27.92 126.98 31.16 126.98 36C126.98 40.84 129.66 44.08 133.7 44.08Z" fill="#ffffff"/>
  <path d="M150.08 49V23H156.16V43.72H168.92V49H150.08Z" fill="#ffffff"/>
  <path d="M172.2 49V23H178.28V49H172.2Z" fill="#ffffff"/>
  <path d="M183.36 49V23H190L197.6 36.92L205.16 23H211.8V49H205.92V32.96L199.56 44.4H195.6L189.24 32.96V49H183.36Z" fill="#ffffff"/>
  <path d="M216.08 49L226.16 23H233.24L243.36 49H236.92L235.04 43.88H224.32L222.44 49H216.08ZM226.04 39.12H233.32L229.68 29.16L226.04 39.12Z" fill="#ffffff"/>
  <path d="M247.64 49V23H259.92C265.68 23 269.4 26.28 269.4 31.4C269.4 35.08 267.48 37.8 264.16 39.04L270.12 49H263.24L257.96 40.04H253.72V49H247.64ZM253.72 35.16H259.16C261.76 35.16 263.2 33.84 263.2 31.56C263.2 29.28 261.76 27.96 259.16 27.96H253.72V35.16Z" fill="#ffffff"/>
  <path d="M274.08 49V23H280.16V34.24L290.08 23H297.48L287.04 34.4L298.04 49H290.72L282.96 38.68L280.16 41.76V49H274.08Z" fill="#ffffff"/>
  <path d="M301.24 49V23H321.16V28.08H307.32V33.36H319.6V38.32H307.32V43.92H321.44V49H301.24Z" fill="#ffffff"/>
  <path d="M332.64 49V28.2H324.36V23H347V28.2H338.72V49H332.64Z" fill="#ffffff"/>
</svg>
